{"glyphs":{":":{"x_min":0,"x_max":273,"ha":273,"o":"m 146 519 l 260 519 l 237 383 l 123 383 z m 81 135 l 194 135 l 171 0 l 58 0 z"},"$":{"x_min":0,"x_max":456,"ha":456,"o":"m 172 -5 q 116 12 79 67 q 42 122 36 208 l 137 214 q 145 130 191 105 l 228 321 q 168 353 136 406 q 105 458 105 521 q 105 577 129 626 q 153 674 195 701 q 237 729 276 729 l 297 728 l 305 770 l 362 770 l 354 720 q 403 704 435 660 q 467 617 473 544 l 374 538 q 367 592 335 614 l 302 419 q 370 386 403 334 q 435 282 435 212 q 435 113 376 50 q 316 -13 228 -13 l 213 -99 l 156 -99 z m 250 448 l 280 625 q 248 626 224 600 q 201 575 201 536 q 201 481 250 448 z m 280 291 l 246 95 q 290 99 315 128 q 341 157 341 201 q 341 229 329 248 q 317 268 280 291 z"},"?":{"x_min":0,"x_max":501,"ha":501,"o":"m 280 179 l 176 179 q 185 245 210 293 q 236 340 312 421 q 374 486 386 509 q 399 532 399 555 q 399 586 379 606 q 358 625 320 625 q 275 625 247 596 q 218 567 206 500 l 101 522 q 122 621 181 675 q 240 728 322 728 q 404 728 455 677 q 506 627 506 548 q 506 501 483 458 q 460 416 372 326 q 313 267 300 243 q 286 220 280 179 z m 165 135 l 278 135 l 255 0 l 142 0 z"},"<":{"x_min":0,"x_max":479,"ha":479,"o":"m 440 82 l 38 295 l 38 413 l 440 625 l 440 486 l 160 355 l 440 220 z"},"'":{"x_min":0,"x_max":195,"ha":195,"o":"m 124 461 l 126 595 l 147 716 l 270 716 l 249 595 l 207 461 z"},"=":{"x_min":0,"x_max":479,"ha":479,"o":"m 34 398 l 34 524 l 444 524 l 444 398 z m 34 182 l 34 308 l 444 308 l 444 182 z"},"a":{"x_min":0,"x_max":456,"ha":456,"o":"m 195 372 l 83 383 q 103 455 152 493 q 202 530 277 530 q 354 530 396 492 q 438 454 438 390 q 438 368 434 342 q 431 317 411 204 q 394 110 394 73 q 394 40 403 0 l 292 0 q 285 28 283 59 q 258 24 225 6 q 192 -12 159 -12 q 107 -12 72 29 q 37 70 37 139 q 37 217 77 260 q 117 302 210 311 q 292 319 320 331 q 327 361 327 378 q 327 402 311 416 q 295 431 268 431 q 208 431 195 372 z m 305 242 q 294 238 277 235 q 196 224 171 204 q 145 184 145 151 q 145 125 160 109 q 175 93 198 93 q 222 93 244 106 q 266 120 279 144 q 292 168 301 223 z"},"L":{"x_min":0,"x_max":501,"ha":501,"o":"m 37 0 l 160 716 l 281 716 l 178 120 l 477 120 l 457 0 z"},"3":{"x_min":0,"x_max":456,"ha":456,"o":"m 42 187 l 152 203 q 159 146 177 124 q 195 102 225 102 q 262 102 289 134 q 315 165 315 216 q 315 263 293 287 q 272 312 238 312 q 229 312 220 310 l 240 427 l 251 426 q 296 426 321 453 q 345 481 345 532 q 345 567 329 587 q 312 606 287 606 q 232 606 211 508 l 106 534 q 127 619 168 662 q 221 719 295 719 q 368 719 414 668 q 459 618 459 532 q 459 475 432 430 q 404 386 359 366 q 394 343 413 306 q 432 270 432 224 q 432 139 379 70 q 317 -12 223 -12 q 151 -12 102 38 q 53 89 42 187 z"},";":{"x_min":0,"x_max":273,"ha":273,"o":"m 148 519 l 262 519 l 239 383 l 125 383 z m 83 135 l 199 135 l 180 23 q 163 -75 126 -114 q 90 -154 33 -155 l 44 -90 q 73 -83 89 -62 q 105 -42 113 0 l 60 0 z"},"J":{"x_min":0,"x_max":456,"ha":456,"o":"m 374 716 l 492 716 l 418 282 q 387 101 337 44 q 286 -12 193 -12 q 112 -12 68 33 q 24 78 24 164 q 24 181 26 202 l 138 217 q 135 196 135 182 q 135 146 152 128 q 169 111 201 111 q 246 111 265 144 q 280 168 300 287 z"},"V":{"x_min":0,"x_max":547,"ha":547,"o":"m 328 0 l 198 0 l 93 716 l 214 716 l 289 174 l 531 716 l 651 716 z"},"\"":{"x_min":0,"x_max":389,"ha":389,"o":"m 122 461 l 124 595 l 145 716 l 267 716 l 246 595 l 205 461 z m 302 461 l 304 595 l 326 716 l 448 716 l 427 595 l 385 461 z"},"7":{"x_min":0,"x_max":456,"ha":456,"o":"m 85 577 l 107 706 l 494 706 l 477 606 q 447 577 413 525 q 365 452 331 375 q 283 269 256 181 q 219 59 210 0 l 101 0 q 110 71 146 185 q 182 298 229 394 q 275 491 336 577 z"},"S":{"x_min":0,"x_max":547,"ha":547,"o":"m 52 232 l 167 239 q 169 182 180 159 q 190 137 215 124 q 240 111 283 111 q 339 111 367 135 q 395 160 395 199 q 395 227 379 247 q 363 267 295 302 q 210 348 182 373 q 154 398 138 435 q 123 471 123 518 q 123 614 179 671 q 235 728 333 728 q 431 728 490 671 q 548 615 554 512 l 438 505 q 430 611 332 611 q 284 611 261 591 q 238 571 238 536 q 238 503 260 483 q 281 463 345 429 q 429 384 457 360 q 485 335 500 299 q 515 263 515 218 q 515 116 451 52 q 387 -12 282 -12 q 203 -12 147 21 q 91 55 71 111 q 50 167 52 232 z"},"}":{"x_min":0,"x_max":319,"ha":319,"o":"m 276 200 q 241 198 221 184 q 201 169 185 134 q 170 100 156 17 q 141 -69 126 -107 q 111 -145 90 -166 q 69 -187 38 -198 q 6 -210 -49 -210 l -70 -210 l -49 -93 q -9 -93 6 -87 q 20 -82 29 -69 q 39 -56 44 -22 q 70 121 94 174 q 119 227 169 259 q 143 282 133 308 q 123 333 123 373 q 123 391 125 415 q 135 494 144 541 q 147 561 147 575 q 147 595 134 603 q 122 611 74 611 l 95 728 l 116 728 q 174 728 199 717 q 225 706 240 680 q 255 653 255 616 q 255 583 241 501 q 228 425 228 399 q 228 358 246 336 q 259 320 296 317 z"},"Z":{"x_min":0,"x_max":501,"ha":501,"o":"m 21 0 l 40 113 l 377 596 l 104 596 l 125 716 l 548 716 l 530 604 l 188 117 l 251 119 l 271 119 l 357 120 l 496 120 l 476 0 z"},"x":{"x_min":0,"x_max":456,"ha":456,"o":"m 229 146 l 123 0 l -18 0 l 179 266 l 70 519 l 192 519 l 254 371 l 362 519 l 502 519 l 305 250 l 412 0 l 290 0 z"},")":{"x_min":0,"x_max":273,"ha":273,"o":"m 96 728 l 174 728 q 239 541 239 365 q 239 261 210 157 q 182 54 128 -48 q 96 -108 23 -210 l -64 -210 q 43 -56 86 85 q 136 245 136 428 q 136 562 96 728 z"},"&":{"x_min":0,"x_max":592,"ha":592,"o":"m 496 312 l 579 251 q 552 187 514 142 q 536 113 572 75 l 500 -17 q 465 7 430 53 q 399 23 355 5 q 312 -12 263 -12 q 176 -12 122 44 q 68 101 68 191 q 68 237 84 280 q 100 323 128 356 q 156 389 219 430 q 193 500 193 550 q 193 630 240 679 q 287 728 357 728 q 417 728 455 689 q 494 650 494 592 q 494 542 460 489 q 426 436 357 393 q 381 345 416 281 q 435 248 447 232 q 467 256 496 312 z m 316 488 q 396 538 396 591 q 396 612 385 624 q 373 637 354 637 q 332 637 315 617 q 299 597 299 563 q 299 533 316 488 z m 261 332 q 181 283 181 204 q 181 157 206 129 q 230 102 268 102 q 316 102 366 142 q 304 233 261 332 z"},"_":{"x_min":0,"x_max":456,"ha":456,"o":"m -6 -75 l 462 -75 l 462 -125 l -6 -125 z"},"v":{"x_min":0,"x_max":456,"ha":456,"o":"m 246 0 l 147 0 l 62 519 l 174 519 l 205 292 q 216 205 219 170 l 245 228 l 277 300 l 383 519 l 507 519 z"},"O":{"x_min":0,"x_max":638,"ha":638,"o":"m 72 281 q 72 374 103 472 q 143 598 220 663 q 298 728 400 728 q 506 728 574 647 q 643 567 643 428 q 643 302 594 195 q 545 89 472 38 q 399 -13 312 -13 q 208 -13 146 61 q 72 147 72 281 z m 191 284 q 191 205 230 157 q 269 110 325 110 q 370 110 414 146 q 458 181 490 261 q 522 341 522 424 q 522 511 482 561 q 447 605 390 605 q 344 605 299 569 q 254 534 223 455 q 191 376 191 284 z"},"(":{"x_min":0,"x_max":273,"ha":273,"o":"m 196 -210 l 118 -210 q 54 -27 54 153 q 54 257 82 360 q 110 463 165 566 q 196 626 270 728 l 356 728 q 250 574 206 434 q 157 273 157 93 q 157 -48 196 -210 z"},"C":{"x_min":0,"x_max":592,"ha":592,"o":"m 459 258 l 581 236 q 544 111 472 49 q 401 -13 307 -13 q 201 -13 139 64 q 78 142 78 296 q 78 428 123 529 q 167 630 237 679 q 307 728 388 728 q 479 728 540 668 q 601 608 611 496 l 496 482 q 485 547 458 574 q 430 601 385 601 q 340 601 298 568 q 256 536 226 459 q 197 382 197 290 q 197 203 231 157 q 265 111 314 111 q 360 111 400 147 q 439 184 459 258 z"},"W":{"x_min":0,"x_max":774,"ha":774,"o":"m 592 0 l 470 0 l 457 523 l 243 0 l 118 0 l 96 716 l 214 716 l 219 215 l 421 716 l 552 716 l 565 220 l 759 716 l 875 716 z"},"A":{"x_min":0,"x_max":592,"ha":592,"o":"m 418 158 l 185 158 l 115 0 l -9 0 l 323 716 l 457 716 l 552 0 l 438 0 z m 403 277 l 369 565 l 240 277 z"},"f":{"x_min":0,"x_max":273,"ha":273,"o":"m 329 519 l 312 416 l 230 416 l 159 0 l 44 0 l 115 416 l 51 416 l 69 519 l 133 519 l 142 572 q 154 644 169 671 q 183 698 210 713 q 237 728 274 728 q 327 728 386 705 l 364 604 q 322 622 296 622 q 280 622 270 609 q 262 600 254 555 l 248 519 z"},"Q":{"x_min":0,"x_max":638,"ha":638,"o":"m 432 14 q 404 1 374 -6 q 344 -13 312 -13 q 208 -13 146 61 q 72 147 72 283 q 72 373 103 471 q 143 597 221 663 q 298 728 400 728 q 506 728 575 647 q 644 567 644 428 q 644 321 607 226 q 570 130 512 71 q 549 26 593 -4 l 536 -95 q 479 -62 432 14 z m 442 173 q 477 215 500 286 q 523 357 523 424 q 523 511 485 558 q 448 605 391 605 q 345 605 300 570 q 256 535 224 457 q 192 378 192 292 q 192 206 230 158 q 269 111 327 111 q 354 111 366 115 q 370 116 370 121 q 370 126 353 145 q 330 169 305 181 l 349 263 q 403 229 442 173 z"},"w":{"x_min":0,"x_max":638,"ha":638,"o":"m 478 0 l 370 0 l 349 330 l 219 0 l 112 0 l 59 519 l 161 519 l 191 171 l 323 519 l 428 519 l 442 171 l 574 519 l 689 519 z"},"-":{"x_min":0,"x_max":273,"ha":273,"o":"m 55 326 l 278 326 l 255 190 l 32 190 z"},"E":{"x_min":0,"x_max":547,"ha":547,"o":"m 34 0 l 156 716 l 591 716 l 571 596 l 257 596 l 229 434 l 533 434 l 512 314 l 208 314 l 175 120 l 512 120 l 492 0 z"},"s":{"x_min":0,"x_max":456,"ha":456,"o":"m 18 145 l 129 167 q 144 123 167 105 q 189 88 226 88 q 262 88 284 105 q 306 122 306 145 q 306 161 296 171 q 287 182 250 196 q 146 238 122 262 q 82 300 82 362 q 82 436 134 483 q 186 530 275 530 q 428 530 452 395 l 346 373 q 328 434 257 434 q 224 434 207 420 q 190 407 190 386 q 190 368 203 356 q 213 347 271 326 q 353 297 381 269 q 423 229 423 170 q 423 92 370 40 q 316 -12 229 -12 q 56 -12 18 145 z"},">":{"x_min":0,"x_max":479,"ha":479,"o":"m 38 81 l 38 219 l 319 354 l 38 487 l 38 625 l 440 412 l 440 295 z"},"l":{"x_min":0,"x_max":228,"ha":228,"o":"m 32 0 l 155 716 l 270 716 l 147 0 z"},"8":{"x_min":0,"x_max":456,"ha":456,"o":"m 176 394 q 146 419 130 451 q 114 483 114 523 q 114 577 139 623 q 165 670 206 694 q 247 719 298 719 q 373 719 419 671 q 465 624 465 544 q 465 490 440 449 q 416 409 366 383 q 402 356 420 318 q 438 280 438 230 q 438 142 388 73 q 326 -13 227 -13 q 151 -13 103 42 q 54 96 54 186 q 54 259 88 315 q 121 372 176 394 z m 220 514 q 220 479 237 459 q 254 439 280 439 q 310 439 334 467 q 358 495 358 534 q 358 570 341 591 q 323 612 297 612 q 266 612 243 584 q 220 557 220 514 z m 168 183 q 168 142 187 119 q 206 97 234 97 q 276 97 301 143 q 326 188 326 249 q 326 287 307 309 q 288 332 260 332 q 225 332 197 292 q 168 251 168 183 z"},"\\":{"x_min":0,"x_max":228,"ha":228,"o":"m 155 -12 l 64 728 l 144 728 l 235 -12 z"},"e":{"x_min":0,"x_max":456,"ha":456,"o":"m 447 216 l 158 216 l 158 203 q 158 150 183 119 q 207 88 241 88 q 298 88 331 160 l 434 139 q 403 63 353 26 q 303 -12 240 -12 q 157 -12 102 53 q 47 118 47 229 q 47 348 110 439 q 172 530 285 530 q 360 530 407 473 q 455 416 455 307 q 455 256 447 216 z m 350 301 l 350 315 q 350 374 328 402 q 307 431 272 431 q 237 431 208 398 q 180 365 170 301 z"},"b":{"x_min":0,"x_max":501,"ha":501,"o":"m 29 0 l 152 716 l 267 716 l 226 477 q 260 507 287 519 q 313 530 344 530 q 411 530 452 476 q 493 422 493 315 q 493 218 461 140 q 429 62 381 25 q 333 -12 283 -12 q 191 -12 148 85 l 134 0 z m 184 211 q 184 158 209 126 q 233 94 266 94 q 292 94 317 115 q 342 137 362 194 q 381 250 381 312 q 381 369 358 400 q 334 431 301 431 q 251 431 218 366 q 184 302 184 211 z"},"%":{"x_min":0,"x_max":729,"ha":729,"o":"m 74 494 q 74 589 116 659 q 159 728 230 728 q 280 728 311 690 q 342 652 342 581 q 342 513 318 457 q 295 400 261 376 q 227 352 185 352 q 137 352 105 389 q 74 426 74 494 z m 159 482 q 159 457 168 446 q 177 435 192 435 q 220 435 238 481 q 259 539 259 600 q 259 622 250 633 q 241 645 226 645 q 212 645 199 633 q 187 620 173 571 q 159 522 159 482 z m 194 -31 l 102 -31 l 591 728 l 683 728 z m 441 112 q 441 208 483 277 q 525 347 598 347 q 647 347 678 308 q 708 270 708 199 q 708 132 685 75 q 662 19 628 -5 q 594 -29 552 -29 q 503 -29 472 8 q 441 45 441 112 z m 525 101 q 525 76 534 64 q 543 53 559 53 q 586 53 604 100 q 626 157 626 218 q 626 240 617 252 q 607 264 593 264 q 579 264 566 251 q 554 239 540 189 q 525 140 525 101 z"},"m":{"x_min":0,"x_max":729,"ha":729,"o":"m 118 519 l 227 519 l 215 456 q 279 530 348 530 q 441 530 456 439 q 479 479 520 505 q 562 530 604 530 q 654 530 683 498 q 712 466 712 409 q 712 382 701 317 l 647 0 l 532 0 l 586 317 q 596 376 596 384 q 596 407 585 419 q 574 431 554 431 q 513 431 479 379 q 453 338 436 236 l 396 0 l 280 0 l 334 313 q 343 368 343 383 q 343 405 331 418 q 319 431 301 431 q 276 431 249 407 q 223 383 207 338 q 198 311 185 238 l 144 0 l 29 0 z"},"#":{"x_min":0,"x_max":456,"ha":456,"o":"m 62 178 l 7 178 l 7 286 l 80 286 l 104 430 l 7 430 l 7 538 l 122 538 l 153 728 l 243 728 l 211 538 l 299 538 l 331 728 l 423 728 l 391 538 l 447 538 l 447 430 l 374 430 l 349 286 l 447 286 l 447 178 l 332 178 l 299 -12 l 210 -12 l 241 178 l 152 178 l 121 -12 l 30 -12 z m 193 430 l 170 286 l 259 286 l 282 430 z"},",":{"x_min":0,"x_max":228,"ha":228,"o":"m 58 135 l 174 135 l 155 23 q 138 -75 102 -114 q 65 -154 8 -155 l 20 -90 q 48 -83 64 -62 q 80 -42 88 0 l 35 0 z"},"n":{"x_min":0,"x_max":501,"ha":501,"o":"m 123 519 l 232 519 l 221 451 q 263 496 299 513 q 334 530 372 530 q 423 530 454 495 q 484 459 484 397 q 484 370 472 294 l 421 0 l 306 0 l 357 294 q 368 360 368 373 q 368 401 355 416 q 341 431 320 431 q 296 431 272 412 q 237 386 220 349 q 203 313 186 213 l 149 0 l 34 0 z"},"h":{"x_min":0,"x_max":501,"ha":501,"o":"m 149 0 l 34 0 l 157 716 l 272 716 l 228 461 q 269 500 303 515 q 336 530 373 530 q 423 530 454 495 q 484 460 484 398 q 484 368 473 303 l 421 0 l 306 0 l 359 309 q 368 359 368 374 q 368 400 354 416 q 340 431 318 431 q 290 431 264 407 q 228 374 210 326 q 201 300 185 206 z"},"z":{"x_min":0,"x_max":410,"ha":410,"o":"m 14 0 l 30 95 l 263 409 l 73 409 l 92 519 l 425 519 l 411 435 l 176 113 l 381 113 l 361 0 z"},"B":{"x_min":0,"x_max":592,"ha":592,"o":"m 33 0 l 155 716 l 356 716 q 437 716 471 706 q 524 690 553 647 q 582 605 582 542 q 582 479 554 437 q 526 395 471 373 q 514 358 540 320 q 566 282 566 231 q 566 162 535 105 q 503 49 453 25 q 402 0 310 0 z m 227 427 l 319 427 q 379 427 406 437 q 432 446 447 470 q 462 494 462 525 q 462 550 451 567 q 440 584 423 590 q 406 596 349 596 l 256 596 z m 173 115 l 290 115 q 358 115 383 125 q 409 135 426 161 q 443 187 443 220 q 443 258 420 280 q 398 302 350 302 l 205 302 z"},"K":{"x_min":0,"x_max":592,"ha":592,"o":"m 32 0 l 155 716 l 275 716 l 224 412 l 495 716 l 657 716 l 393 435 l 586 0 l 450 0 l 305 341 l 191 219 l 154 0 z"},"R":{"x_min":0,"x_max":592,"ha":592,"o":"m 157 0 l 36 0 l 159 716 l 420 716 q 492 716 528 697 q 563 678 586 635 q 608 593 608 528 q 608 433 561 375 q 515 318 427 304 q 452 277 475 228 q 514 145 561 0 l 431 0 q 423 30 378 165 q 355 233 335 262 q 321 282 307 289 q 292 296 257 296 l 208 296 z m 226 404 l 290 404 q 381 404 413 415 q 445 427 466 458 q 487 488 487 525 q 487 566 460 584 q 445 596 392 596 l 259 596 z"},"T":{"x_min":0,"x_max":501,"ha":501,"o":"m 289 0 l 168 0 l 271 596 l 99 596 l 119 716 l 582 716 l 561 596 l 392 596 z"},"P":{"x_min":0,"x_max":547,"ha":547,"o":"m 154 0 l 34 0 l 156 716 l 395 716 q 461 716 497 697 q 533 678 554 637 q 576 596 576 537 q 576 466 550 406 q 524 346 485 317 q 446 289 393 278 q 364 273 279 273 l 201 273 z m 222 392 l 259 392 q 348 392 381 404 q 413 416 434 448 q 455 481 455 524 q 455 570 425 588 q 407 598 344 598 l 257 598 z"},"|":{"x_min":0,"x_max":230,"ha":230,"o":"m 71 -210 l 71 728 l 160 728 l 160 -210 z"},"t":{"x_min":0,"x_max":273,"ha":273,"o":"m 62 415 l 79 519 l 135 519 l 149 602 l 281 698 l 250 519 l 320 519 l 303 415 l 232 415 l 195 197 q 185 139 185 129 q 185 112 194 104 q 203 96 224 96 q 231 96 262 99 l 244 -5 q 214 -12 184 -12 q 125 -12 96 16 q 67 43 67 96 q 67 120 82 206 l 117 415 z"},"M":{"x_min":0,"x_max":683,"ha":683,"o":"m 371 0 l 256 0 l 235 598 l 142 0 l 33 0 l 156 716 l 328 716 l 346 214 l 546 716 l 720 716 l 598 0 l 487 0 l 603 594 z"},"g":{"x_min":0,"x_max":501,"ha":501,"o":"m 26 -27 l 148 -49 q 148 -80 163 -95 q 179 -110 210 -110 q 241 -110 260 -98 q 279 -86 290 -62 q 301 -39 312 34 l 315 59 q 256 -2 193 -2 q 131 -2 90 51 q 50 104 50 209 q 50 309 80 384 q 109 458 157 494 q 205 530 254 530 q 295 530 331 504 q 366 477 387 427 l 402 519 l 510 519 l 437 86 q 415 -40 398 -88 q 375 -153 331 -182 q 286 -210 208 -210 q 117 -210 76 -177 q 25 -135 25 -49 z m 162 223 q 162 164 187 129 q 206 102 238 102 q 265 102 291 124 q 317 146 336 197 q 355 247 355 306 q 355 364 330 397 q 306 431 274 431 q 250 431 226 410 q 202 389 182 333 q 162 277 162 223 z"},"j":{"x_min":0,"x_max":228,"ha":228,"o":"m 157 716 l 272 716 l 250 589 l 135 589 z m 123 519 l 238 519 l 163 80 q 130 -108 108 -148 q 73 -210 -5 -210 q -50 -210 -89 -195 l -71 -79 q -44 -87 -25 -87 q 0 -87 14 -63 q 27 -40 49 89 z"},"i":{"x_min":0,"x_max":228,"ha":228,"o":"m 156 716 l 271 716 l 249 589 l 134 589 z m 122 519 l 237 519 l 148 0 l 33 0 z"},"y":{"x_min":0,"x_max":456,"ha":456,"o":"m 69 519 l 183 519 l 212 260 q 223 161 224 121 q 247 201 286 289 l 388 519 l 509 519 l 247 -51 q 209 -131 189 -158 q 169 -185 144 -198 q 119 -210 87 -210 q 51 -210 5 -195 l 16 -90 q 36 -98 56 -98 q 108 -98 143 0 z"},"@":{"x_min":0,"x_max":800,"ha":800,"o":"m 711 9 l 796 9 q 754 -96 664 -153 q 574 -210 444 -210 q 311 -210 219 -158 q 127 -106 76 -5 q 24 96 24 237 q 24 382 81 498 q 137 614 228 671 q 319 729 435 729 q 534 729 611 682 q 688 636 732 550 q 776 463 776 352 q 776 225 709 121 q 631 0 511 0 q 479 0 461 13 q 444 26 438 56 q 391 0 329 0 q 265 0 220 55 q 175 109 175 204 q 175 296 209 377 q 244 458 291 493 q 338 529 392 529 q 428 529 454 513 q 480 496 498 463 l 507 517 l 613 517 l 553 167 q 547 133 547 123 q 547 112 552 106 q 556 100 562 100 q 581 100 611 127 q 652 163 678 226 q 704 289 704 356 q 704 438 668 505 q 633 572 574 605 q 516 639 433 639 q 334 639 261 592 q 188 545 142 449 q 97 353 97 229 q 97 123 140 42 q 182 -39 256 -80 q 330 -121 436 -121 q 532 -121 601 -88 q 669 -56 711 9 z m 279 210 q 279 147 300 118 q 321 89 352 89 q 379 89 402 110 q 432 136 454 200 q 476 263 476 328 q 476 383 454 412 q 433 441 402 441 q 353 441 322 386 q 279 308 279 210 z"},".":{"x_min":0,"x_max":228,"ha":228,"o":"m 60 135 l 173 135 l 149 0 l 36 0 z"},"p":{"x_min":0,"x_max":501,"ha":501,"o":"m 118 519 l 227 519 l 218 465 q 254 502 285 516 q 315 530 348 530 q 415 530 456 475 q 497 419 497 307 q 497 165 424 68 q 365 -12 284 -12 q 200 -12 157 71 l 110 -198 l -4 -198 z m 188 221 q 188 160 212 127 q 236 94 269 94 q 294 94 319 115 q 344 136 365 193 q 385 250 385 311 q 385 369 362 400 q 338 431 304 431 q 277 431 252 410 q 227 389 207 334 q 188 279 188 221 z"},"X":{"x_min":0,"x_max":547,"ha":547,"o":"m 132 0 l -24 0 l 235 362 l 89 716 l 215 716 l 272 582 q 303 509 316 469 q 365 542 399 588 l 491 716 l 643 716 l 375 339 l 519 0 l 383 0 l 339 108 q 304 194 293 230 q 278 202 212 111 z"},"*":{"x_min":0,"x_max":319,"ha":319,"o":"m 167 382 l 104 437 l 180 533 l 79 562 l 102 649 l 196 593 l 185 722 l 258 722 l 247 593 l 346 646 l 368 560 l 267 533 l 337 437 l 277 382 l 223 495 z"},"Y":{"x_min":0,"x_max":547,"ha":547,"o":"m 329 0 l 208 0 l 256 279 l 94 716 l 223 716 l 295 514 q 321 441 330 409 q 346 441 365 477 l 420 571 l 503 716 l 644 716 l 375 265 z"},"c":{"x_min":0,"x_max":456,"ha":456,"o":"m 321 195 l 433 173 q 405 81 350 34 q 296 -12 226 -12 q 147 -12 98 46 q 49 104 49 209 q 49 305 82 379 q 115 454 172 492 q 228 530 292 530 q 364 530 411 484 q 457 438 463 357 l 354 343 q 346 427 285 427 q 257 427 230 404 q 204 381 183 322 q 163 263 163 193 q 163 147 182 122 q 201 98 227 98 q 255 98 281 121 q 306 145 321 195 z"},"!":{"x_min":0,"x_max":273,"ha":273,"o":"m 167 182 l 104 182 l 140 547 l 168 716 l 290 716 l 258 535 z m 74 135 l 187 135 l 164 0 l 50 0 z"},"/":{"x_min":0,"x_max":228,"ha":228,"o":"m -36 -12 l 255 728 l 335 728 l 45 -12 z"},"[":{"x_min":0,"x_max":273,"ha":273,"o":"m 222 -93 l 204 -197 l 8 -197 l 164 716 l 360 716 l 341 607 l 254 607 l 134 -93 z"},"6":{"x_min":0,"x_max":456,"ha":456,"o":"m 472 541 l 364 530 q 361 573 347 590 q 334 607 312 607 q 277 607 251 567 q 225 527 208 448 q 245 478 286 478 q 353 478 398 422 q 442 366 442 267 q 442 154 385 71 q 327 -13 238 -13 q 189 -13 151 16 q 112 44 89 102 q 66 160 66 260 q 66 462 139 590 q 212 719 320 719 q 384 719 424 675 q 463 632 472 541 z m 177 210 q 177 153 196 127 q 214 100 241 100 q 275 100 299 139 q 331 190 331 275 q 331 332 313 358 q 295 385 269 385 q 249 385 227 367 q 206 349 192 307 q 177 264 177 210 z"},"r":{"x_min":0,"x_max":319,"ha":319,"o":"m 115 519 l 223 519 l 206 418 q 265 530 335 530 q 360 530 389 516 l 345 401 q 329 408 312 408 q 285 408 262 390 q 226 362 207 317 q 188 272 169 163 l 141 0 l 26 0 z"},"2":{"x_min":0,"x_max":456,"ha":456,"o":"m 217 493 l 104 513 q 119 616 169 667 q 219 719 292 719 q 372 719 420 667 q 468 614 468 526 q 468 458 433 393 q 406 345 325 253 q 251 170 225 128 l 428 128 l 406 0 l 50 0 q 59 80 101 152 q 129 201 233 321 q 309 409 330 443 q 357 489 357 527 q 357 565 339 587 q 321 609 295 609 q 235 609 217 493 z"},"{":{"x_min":0,"x_max":319,"ha":319,"o":"m 45 200 l 65 317 q 101 319 121 334 q 141 349 156 384 q 172 418 186 501 q 201 587 215 625 q 230 662 251 683 q 272 705 304 716 q 335 728 391 728 l 412 728 l 391 611 q 346 611 332 605 q 317 598 310 584 q 304 574 291 511 q 268 398 259 373 q 244 332 225 307 q 207 282 172 259 q 219 222 219 148 q 219 111 206 36 q 194 -37 194 -56 q 194 -75 209 -85 q 222 -93 267 -93 l 246 -210 l 225 -210 q 167 -210 141 -199 q 115 -188 100 -163 q 85 -139 85 -101 q 85 -59 100 17 q 113 86 113 123 q 113 157 96 180 q 83 198 45 200 z"},"9":{"x_min":0,"x_max":456,"ha":456,"o":"m 52 165 l 160 176 q 163 133 177 116 q 190 100 213 100 q 248 100 274 139 q 300 179 317 258 q 279 229 238 229 q 171 229 127 284 q 82 340 82 439 q 82 551 139 635 q 196 719 288 719 q 336 719 374 691 q 412 663 435 604 q 458 546 458 447 q 458 244 385 116 q 312 -12 204 -12 q 139 -12 98 34 q 57 80 52 165 z m 347 496 q 347 553 329 579 q 311 606 283 606 q 250 606 225 567 q 193 516 193 430 q 193 375 211 348 q 229 321 255 321 q 276 321 297 339 q 318 357 333 400 q 347 442 347 496 z"}," ":{"x_min":0,"x_max":228,"ha":228,"o":""},"I":{"x_min":0,"x_max":228,"ha":228,"o":"m 29 0 l 151 716 l 272 716 l 149 0 z"},"H":{"x_min":0,"x_max":592,"ha":592,"o":"m 438 320 l 211 320 l 156 0 l 35 0 l 158 716 l 279 716 l 231 439 l 458 439 l 506 716 l 626 716 l 504 0 l 383 0 z"},"4":{"x_min":0,"x_max":456,"ha":456,"o":"m 253 146 l 22 146 l 42 263 l 360 716 l 459 716 l 382 265 l 453 265 l 433 146 l 362 146 l 336 0 l 228 0 z m 274 265 l 312 488 l 157 265 z"},"~":{"x_min":0,"x_max":479,"ha":479,"o":"m 27 253 l 27 380 q 78 447 145 447 q 170 447 192 441 q 213 435 262 411 q 323 381 343 381 q 366 381 396 398 q 425 416 452 451 l 452 319 q 430 291 390 269 q 365 255 333 255 q 312 255 293 260 q 274 266 233 289 q 171 321 136 321 q 80 321 27 253 z"},"D":{"x_min":0,"x_max":592,"ha":592,"o":"m 36 0 l 158 716 l 316 716 q 399 716 428 709 q 478 697 514 661 q 551 625 573 564 q 594 504 594 419 q 594 331 572 255 q 550 180 510 123 q 471 67 428 41 q 386 16 339 6 q 309 0 243 0 z m 176 115 l 237 115 q 304 115 331 125 q 366 136 397 173 q 428 209 450 274 q 473 338 473 423 q 473 494 454 534 q 436 574 405 588 q 383 598 329 598 l 259 598 z"},"^":{"x_min":0,"x_max":479,"ha":479,"o":"m 46 338 l 197 728 l 286 728 l 433 338 l 319 338 l 240 577 l 161 338 z"},"0":{"x_min":0,"x_max":456,"ha":456,"o":"m 53 233 q 53 372 97 498 q 141 625 202 678 q 248 719 305 719 q 376 719 422 656 q 468 593 468 472 q 468 333 425 207 q 381 81 320 27 q 275 -12 216 -12 q 146 -12 100 50 q 53 112 53 233 z m 166 205 q 166 147 181 124 q 196 100 220 100 q 250 100 275 134 q 308 179 332 307 q 356 436 356 505 q 356 559 341 583 q 325 606 301 606 q 272 606 249 573 q 212 521 186 381 q 166 272 166 205 z"},"F":{"x_min":0,"x_max":501,"ha":501,"o":"m 32 0 l 154 716 l 565 716 l 545 596 l 255 596 l 225 424 l 509 424 l 489 305 l 205 305 l 152 0 z"},"`":{"x_min":0,"x_max":273,"ha":273,"o":"m 110 732 l 221 732 l 272 586 l 194 586 z"},"k":{"x_min":0,"x_max":456,"ha":456,"o":"m 31 0 l 154 716 l 269 716 l 205 343 l 354 519 l 504 519 l 333 330 l 424 0 l 309 0 l 250 240 l 173 156 l 146 0 z"},"u":{"x_min":0,"x_max":501,"ha":501,"o":"m 121 519 l 236 519 l 183 211 q 174 156 174 143 q 174 119 188 104 q 202 88 222 88 q 245 88 268 104 q 300 127 319 164 q 338 201 351 271 l 393 519 l 507 519 l 419 0 l 312 0 l 323 70 q 252 -12 170 -12 q 119 -12 88 24 q 58 60 58 123 q 58 149 71 229 z"},"]":{"x_min":0,"x_max":273,"ha":273,"o":"m 93 611 l 110 716 l 307 716 l 151 -197 l -46 -197 l -27 -88 l 62 -88 l 181 611 z"},"U":{"x_min":0,"x_max":592,"ha":592,"o":"m 156 716 l 277 716 l 210 327 l 194 233 q 192 220 192 209 q 192 164 219 137 q 246 111 292 111 q 332 111 360 129 q 389 147 405 184 q 422 222 439 324 l 506 716 l 627 716 l 560 324 q 540 205 517 148 q 483 67 427 28 q 370 -12 286 -12 q 188 -12 131 47 q 75 105 75 207 q 75 240 92 339 z"},"o":{"x_min":0,"x_max":501,"ha":501,"o":"m 50 215 q 50 343 107 432 q 171 530 292 530 q 383 530 437 469 q 491 407 491 297 q 491 168 424 78 q 357 -12 249 -12 q 160 -12 105 49 q 50 110 50 215 z m 377 315 q 377 367 353 396 q 329 425 292 425 q 261 425 233 404 q 206 382 186 329 q 165 276 165 219 q 165 161 190 128 q 215 96 252 96 q 299 96 332 146 q 377 214 377 315 z"},"N":{"x_min":0,"x_max":592,"ha":592,"o":"m 503 0 l 390 0 l 231 481 l 149 0 l 37 0 l 159 716 l 272 716 l 431 237 l 513 716 l 625 716 z"},"+":{"x_min":0,"x_max":479,"ha":479,"o":"m 188 103 l 188 289 l 34 289 l 34 417 l 188 417 l 188 604 l 290 604 l 290 417 l 444 417 l 444 289 l 290 289 l 290 103 z"},"G":{"x_min":0,"x_max":638,"ha":638,"o":"m 361 382 l 623 382 l 570 75 q 521 36 454 12 q 386 -12 319 -12 q 203 -12 144 57 q 73 140 73 287 q 73 415 121 522 q 170 629 241 679 q 312 728 400 728 q 497 728 560 672 q 624 617 645 502 l 532 487 q 502 609 400 609 q 344 609 297 575 q 250 541 220 465 q 189 389 189 287 q 189 196 224 153 q 258 111 322 111 q 358 111 393 122 q 439 136 472 156 l 490 263 l 340 263 z"},"q":{"x_min":0,"x_max":501,"ha":501,"o":"m 407 519 l 512 519 l 390 -198 l 275 -198 l 316 44 q 285 13 258 0 q 230 -12 198 -12 q 132 -12 94 38 q 49 96 49 204 q 49 300 81 379 q 113 458 160 494 q 208 530 260 530 q 351 530 393 437 z m 160 206 q 160 153 183 123 q 207 92 239 92 q 267 92 292 113 q 317 134 337 188 q 356 242 356 303 q 356 362 332 395 q 307 427 276 427 q 251 427 225 405 q 199 382 179 325 q 160 269 160 206 z"},"d":{"x_min":0,"x_max":501,"ha":501,"o":"m 426 0 l 317 0 l 327 56 q 294 19 264 3 q 233 -12 197 -12 q 132 -12 90 42 q 49 97 49 206 q 49 334 108 432 q 167 530 259 530 q 345 530 388 448 l 434 716 l 548 716 z m 161 211 q 161 154 184 124 q 207 93 240 93 q 268 93 293 114 q 319 135 339 189 q 358 243 358 300 q 358 358 333 393 q 308 427 276 427 q 251 427 225 405 q 199 383 180 327 q 161 272 161 211 z"},"1":{"x_min":0,"x_max":456,"ha":456,"o":"m 97 411 l 119 536 q 268 615 349 720 l 418 720 l 295 0 l 179 0 l 265 496 q 229 468 182 445 q 135 421 97 411 z"},"5":{"x_min":0,"x_max":456,"ha":456,"o":"m 52 205 l 164 217 l 164 203 q 164 152 182 128 q 201 103 229 103 q 270 103 303 150 q 337 198 337 282 q 337 333 318 358 q 299 383 269 383 q 246 383 225 370 q 204 357 184 332 l 89 340 l 179 706 l 474 706 l 452 578 l 257 578 l 230 468 q 247 477 264 482 q 281 486 297 486 q 363 486 407 432 q 451 378 451 283 q 451 201 418 130 q 384 59 333 23 q 281 -12 225 -12 q 151 -12 102 46 q 53 104 52 205 z"}}}
